<svg xmlns="http://www.w3.org/2000/svg" xmlns:xlink="http://www.w3.org/1999/xlink" contentStyleType="text/css" data-diagram-type="DESCRIPTION" height="1748.7609px" preserveAspectRatio="none" style="width:1186px;height:1748px;background:#FFFFFF;" version="1.1" viewBox="0 0 1186 1748" width="1186.6286px" zoomAndPan="magnify"><title>CRM - UML Deployment Diagram</title><defs/><g><g class="title" data-source-line="1"><text fill="#000000" font-family="sans-serif" font-size="11.9603" font-weight="bold" lengthAdjust="spacing" textLength="186.7272" x="494.1799" y="26.0846">CRM - UML Deployment Diagram</text></g><!--cluster ClientDevice--><g class="cluster" data-entity="ClientDevice" data-source-line="22" data-uid="ent0003" id="cluster_ClientDevice"><polygon fill="none" points="110.6239,418.7025,119.1669,410.1595,285.7562,410.1595,285.7562,556.2455,277.2132,564.7886,110.6239,564.7886,110.6239,418.7025" style="stroke:#181818;stroke-width:0.8543;"/><line style="stroke:#181818;stroke-width:0.8543;" x1="277.2132" x2="285.7562" y1="418.7025" y2="410.1595"/><line style="stroke:#181818;stroke-width:0.8543;" x1="110.6239" x2="277.2132" y1="418.7025" y2="418.7025"/><line style="stroke:#181818;stroke-width:0.8543;" x1="277.2132" x2="277.2132" y1="418.7025" y2="564.7886"/><text fill="#000000" font-family="sans-serif" font-size="11.9603" font-style="italic" lengthAdjust="spacing" textLength="47.8761" x="170.8348" y="438.8071">&#171;device&#187;</text><text fill="#000000" font-family="sans-serif" font-size="11.9603" font-weight="bold" lengthAdjust="spacing" textLength="73.7822" x="157.8817" y="464.1025">Client device</text></g><!--cluster AppHost--><g class="cluster" data-entity="AppHost" data-source-line="26" data-uid="ent0005" id="cluster_AppHost"><polygon fill="none" points="313.094,138.4907,321.637,129.9477,853.4414,129.9477,853.4414,555.3912,844.8984,563.9343,313.094,563.9343,313.094,138.4907" style="stroke:#181818;stroke-width:0.8543;"/><line style="stroke:#181818;stroke-width:0.8543;" x1="844.8984" x2="853.4414" y1="138.4907" y2="129.9477"/><line style="stroke:#181818;stroke-width:0.8543;" x1="313.094" x2="844.8984" y1="138.4907" y2="138.4907"/><line style="stroke:#181818;stroke-width:0.8543;" x1="844.8984" x2="844.8984" y1="138.4907" y2="563.9343"/><text fill="#000000" font-family="sans-serif" font-size="11.9603" font-style="italic" lengthAdjust="spacing" textLength="47.8761" x="555.9124" y="158.5952">&#171;device&#187;</text><text fill="#000000" font-family="sans-serif" font-size="11.9603" font-weight="bold" lengthAdjust="spacing" textLength="93.6848" x="533.0081" y="183.8907">Application host</text></g><!--cluster CrmRuntime--><g class="cluster" data-entity="CrmRuntime" data-source-line="27" data-uid="ent0006" id="cluster_CrmRuntime"><polygon fill="none" points="347.2661,229.9013,355.8092,221.3582,819.2693,221.3582,819.2693,514.3846,810.7262,522.9277,347.2661,522.9277,347.2661,229.9013" style="stroke:#181818;stroke-width:0.8543;"/><line style="stroke:#181818;stroke-width:0.8543;" x1="810.7262" x2="819.2693" y1="229.9013" y2="221.3582"/><line style="stroke:#181818;stroke-width:0.8543;" x1="347.2661" x2="810.7262" y1="229.9013" y2="229.9013"/><line style="stroke:#181818;stroke-width:0.8543;" x1="810.7262" x2="810.7262" y1="229.9013" y2="522.9277"/><text fill="#000000" font-family="sans-serif" font-size="11.9603" font-style="italic" lengthAdjust="spacing" textLength="131.6446" x="514.0282" y="250.0058">&#171;executionEnvironment&#187;</text><text fill="#000000" font-family="sans-serif" font-size="11.9603" font-weight="bold" lengthAdjust="spacing" textLength="239.2811" x="460.2099" y="275.3012">Docker container / ASP.NET Core process</text></g><!--cluster PgHost--><g class="cluster" data-entity="PgHost" data-source-line="34" data-uid="ent0010" id="cluster_PgHost"><polygon fill="none" points="694.2333,654.4905,702.7763,645.9475,1137.9248,645.9475,1137.9248,898.8215,1129.3817,907.3646,694.2333,907.3646,694.2333,654.4905" style="stroke:#181818;stroke-width:0.8543;"/><line style="stroke:#181818;stroke-width:0.8543;" x1="1129.3817" x2="1137.9248" y1="654.4905" y2="645.9475"/><line style="stroke:#181818;stroke-width:0.8543;" x1="694.2333" x2="1129.3817" y1="654.4905" y2="654.4905"/><line style="stroke:#181818;stroke-width:0.8543;" x1="1129.3817" x2="1129.3817" y1="654.4905" y2="907.3646"/><text fill="#000000" font-family="sans-serif" font-size="11.9603" font-style="italic" lengthAdjust="spacing" textLength="47.8761" x="888.7238" y="674.595">&#171;device&#187;</text><text fill="#000000" font-family="sans-serif" font-size="11.9603" font-weight="bold" lengthAdjust="spacing" textLength="97.6852" x="863.8192" y="699.8905">PostgreSQL host</text></g><!--cluster PgRuntime--><g class="cluster" data-entity="PgRuntime" data-source-line="35" data-uid="ent0011" id="cluster_PgRuntime"><polygon fill="none" points="721.571,739.0666,730.1141,730.5236,1110.587,730.5236,1110.587,871.4838,1102.044,880.0268,721.571,880.0268,721.571,739.0666" style="stroke:#181818;stroke-width:0.8543;"/><line style="stroke:#181818;stroke-width:0.8543;" x1="1102.044" x2="1110.587" y1="739.0666" y2="730.5236"/><line style="stroke:#181818;stroke-width:0.8543;" x1="721.571" x2="1102.044" y1="739.0666" y2="739.0666"/><line style="stroke:#181818;stroke-width:0.8543;" x1="1102.044" x2="1102.044" y1="739.0666" y2="880.0268"/><text fill="#000000" font-family="sans-serif" font-size="11.9603" font-style="italic" lengthAdjust="spacing" textLength="131.6446" x="846.8395" y="759.1712">&#171;executionEnvironment&#187;</text><text fill="#000000" font-family="sans-serif" font-size="11.9603" font-weight="bold" lengthAdjust="spacing" textLength="116.2972" x="854.5132" y="784.4666">PostgreSQL runtime</text></g><!--cluster IdpHost--><g class="cluster" data-entity="IdpHost" data-source-line="40" data-uid="ent0013" id="cluster_IdpHost"><polygon fill="none" points="626.1965,936.4109,634.7395,927.8679,831.2295,927.8679,831.2295,1080.7884,822.6865,1089.3314,626.1965,1089.3314,626.1965,936.4109" style="stroke:#181818;stroke-width:0.8543;"/><line style="stroke:#181818;stroke-width:0.8543;" x1="822.6865" x2="831.2295" y1="936.4109" y2="927.8679"/><line style="stroke:#181818;stroke-width:0.8543;" x1="626.1965" x2="822.6865" y1="936.4109" y2="936.4109"/><line style="stroke:#181818;stroke-width:0.8543;" x1="822.6865" x2="822.6865" y1="936.4109" y2="1089.3314"/><text fill="#000000" font-family="sans-serif" font-size="11.9603" font-style="italic" lengthAdjust="spacing" textLength="47.8761" x="701.3578" y="956.5154">&#171;device&#187;</text><text fill="#000000" font-family="sans-serif" font-size="11.9603" font-weight="bold" lengthAdjust="spacing" textLength="122.2715" x="664.1601" y="981.8109">Identity provider host</text></g><!--cluster ObsHost--><g class="cluster" data-entity="ObsHost" data-source-line="44" data-uid="ent0015" id="cluster_ObsHost"><polygon fill="none" points="612.5276,1125.2122,621.0707,1116.6691,1172.5241,1116.6691,1172.5241,1543.8213,1163.981,1552.3643,612.5276,1552.3643,612.5276,1125.2122" style="stroke:#181818;stroke-width:0.8543;"/><line style="stroke:#181818;stroke-width:0.8543;" x1="1163.981" x2="1172.5241" y1="1125.2122" y2="1116.6691"/><line style="stroke:#181818;stroke-width:0.8543;" x1="612.5276" x2="1163.981" y1="1125.2122" y2="1125.2122"/><line style="stroke:#181818;stroke-width:0.8543;" x1="1163.981" x2="1163.981" y1="1125.2122" y2="1552.3643"/><text fill="#000000" font-family="sans-serif" font-size="11.9603" font-style="italic" lengthAdjust="spacing" textLength="47.8761" x="865.1706" y="1145.3167">&#171;device&#187;</text><text fill="#000000" font-family="sans-serif" font-size="11.9603" font-weight="bold" lengthAdjust="spacing" textLength="104.3486" x="836.9343" y="1170.6121">Observability host</text></g><!--cluster ImportHost--><g class="cluster" data-entity="ImportHost" data-source-line="56" data-uid="ent0021" id="cluster_ImportHost"><polygon fill="none" points="624.4879,1588.2451,633.0309,1579.7021,832.9381,1579.7021,832.9381,1725.7881,824.3951,1734.3311,624.4879,1734.3311,624.4879,1588.2451" style="stroke:#181818;stroke-width:0.8543;"/><line style="stroke:#181818;stroke-width:0.8543;" x1="824.3951" x2="832.9381" y1="1588.2451" y2="1579.7021"/><line style="stroke:#181818;stroke-width:0.8543;" x1="624.4879" x2="824.3951" y1="1588.2451" y2="1588.2451"/><line style="stroke:#181818;stroke-width:0.8543;" x1="824.3951" x2="824.3951" y1="1588.2451" y2="1734.3311"/><text fill="#000000" font-family="sans-serif" font-size="11.9603" font-style="italic" lengthAdjust="spacing" textLength="47.8761" x="701.3578" y="1608.3496">&#171;device&#187;</text><text fill="#000000" font-family="sans-serif" font-size="11.9603" font-weight="bold" lengthAdjust="spacing" textLength="114.2941" x="668.1488" y="1633.645">Import data location</text></g><!--entity Browser--><g class="entity" data-entity="Browser" data-source-line="23" data-uid="ent0004" id="entity_Browser"><rect fill="#F1F1F1" height="70.2398" rx="2.1358" ry="2.1358" style="stroke:#181818;stroke-width:0.4272;" width="147.5469" x="124.2927" y="481.0668"/><polygon fill="#F1F1F1" points="257.3164,485.3383,257.3164,497.2985,267.5681,497.2985,267.5681,490.4641,262.4422,485.3383,257.3164,485.3383" style="stroke:#181818;stroke-width:0.4272;"/><line style="stroke:#181818;stroke-width:0.4272;" x1="262.4422" x2="262.4422" y1="485.3383" y2="490.4641"/><line style="stroke:#181818;stroke-width:0.4272;" x1="267.5681" x2="262.4422" y1="490.4641" y2="490.4641"/><text fill="#000000" font-family="sans-serif" font-size="11.9603" font-style="italic" lengthAdjust="spacing" textLength="49.1959" x="169.1967" y="509.7143">&#171;artifact&#187;</text><text fill="#000000" font-family="sans-serif" font-size="11.9603" lengthAdjust="spacing" textLength="111.6661" x="137.9616" y="535.0097">Browser or API client</text></g><!--entity CrmDll--><g class="entity" data-entity="CrmDll" data-source-line="28" data-uid="ent0007" id="entity_CrmDll"><rect fill="#F1F1F1" height="70.2398" rx="2.1358" ry="2.1358" style="stroke:#181818;stroke-width:0.4272;" width="86.7853" x="385.2827" y="299.0999"/><polygon fill="#F1F1F1" points="457.5448,303.3715,457.5448,315.3317,467.7965,315.3317,467.7965,308.4973,462.6706,303.3715,457.5448,303.3715" style="stroke:#181818;stroke-width:0.4272;"/><line style="stroke:#181818;stroke-width:0.4272;" x1="462.6706" x2="462.6706" y1="303.3715" y2="308.4973"/><line style="stroke:#181818;stroke-width:0.4272;" x1="467.7965" x2="462.6706" y1="308.4973" y2="308.4973"/><text fill="#000000" font-family="sans-serif" font-size="11.9603" font-style="italic" lengthAdjust="spacing" textLength="49.1959" x="399.8059" y="327.7475">&#171;artifact&#187;</text><text fill="#000000" font-family="sans-serif" font-size="11.9603" lengthAdjust="spacing" textLength="37.8722" x="405.4677" y="353.0429">Crm.dll</text></g><!--entity Settings--><g class="entity" data-entity="Settings" data-source-line="29" data-uid="ent0008" id="entity_Settings"><rect fill="#F1F1F1" height="70.2398" rx="2.1358" ry="2.1358" style="stroke:#181818;stroke-width:0.4272;" width="122.3182" x="367.7695" y="407.5966"/><polygon fill="#F1F1F1" points="475.5645,411.8681,475.5645,423.8284,485.8161,423.8284,485.8161,416.9939,480.6903,411.8681,475.5645,411.8681" style="stroke:#181818;stroke-width:0.4272;"/><line style="stroke:#181818;stroke-width:0.4272;" x1="480.6903" x2="480.6903" y1="411.8681" y2="416.9939"/><line style="stroke:#181818;stroke-width:0.4272;" x1="485.8161" x2="480.6903" y1="416.9939" y2="416.9939"/><text fill="#000000" font-family="sans-serif" font-size="11.9603" font-style="italic" lengthAdjust="spacing" textLength="49.1959" x="400.0591" y="436.2441">&#171;artifact&#187;</text><text fill="#000000" font-family="sans-serif" font-size="11.9603" lengthAdjust="spacing" textLength="86.4374" x="381.4383" y="461.5396">appsettings.json</text></g><!--entity Models--><g class="entity" data-entity="Models" data-source-line="30" data-uid="ent0009" id="entity_Models"><rect fill="#F1F1F1" height="70.2398" rx="2.1358" ry="2.1358" style="stroke:#181818;stroke-width:0.4272;" width="140.2235" x="658.6601" y="299.0999"/><polygon fill="#F1F1F1" points="784.3604,303.3715,784.3604,315.3317,794.6121,315.3317,794.6121,308.4973,789.4862,303.3715,784.3604,303.3715" style="stroke:#181818;stroke-width:0.4272;"/><line style="stroke:#181818;stroke-width:0.4272;" x1="789.4862" x2="789.4862" y1="303.3715" y2="308.4973"/><line style="stroke:#181818;stroke-width:0.4272;" x1="794.6121" x2="789.4862" y1="308.4973" y2="308.4973"/><text fill="#000000" font-family="sans-serif" font-size="11.9603" font-style="italic" lengthAdjust="spacing" textLength="49.1959" x="699.9023" y="327.7475">&#171;artifact&#187;</text><text fill="#000000" font-family="sans-serif" font-size="11.9603" lengthAdjust="spacing" textLength="104.3428" x="672.3289" y="353.0429">ml-models directory</text></g><!--entity CrmDb--><g class="entity" data-entity="CrmDb" data-source-line="36" data-uid="ent0012" id="entity_CrmDb"><path d="M1022.5937,817.2355 C1022.5937,808.6924 1056.2031,808.6924 1056.2031,808.6924 C1056.2031,808.6924 1089.8126,808.6924 1089.8126,817.2355 L1089.8126,850.2196 C1089.8126,858.7627 1056.2031,858.7627 1056.2031,858.7627 C1056.2031,858.7627 1022.5937,858.7627 1022.5937,850.2196 L1022.5937,817.2355" fill="#F1F1F1" style="stroke:#181818;stroke-width:0.4272;"/><path d="M1022.5937,817.2355 C1022.5937,825.7785 1056.2031,825.7785 1056.2031,825.7785 C1056.2031,825.7785 1089.8126,825.7785 1089.8126,817.2355" fill="none" style="stroke:#181818;stroke-width:0.4272;"/><text fill="#000000" font-family="sans-serif" font-size="11.9603" lengthAdjust="spacing" textLength="39.8812" x="1036.2626" y="846.7373">crm_db</text></g><!--entity KeycloakRuntime--><g class="entity" data-entity="KeycloakRuntime" data-source-line="41" data-uid="ent0014" id="entity_KeycloakRuntime"><polygon fill="#F1F1F1" points="639.8654,1007.7453,648.4084,999.2023,817.6424,999.2023,817.6424,1066.8792,809.0994,1075.4223,639.8654,1075.4223,639.8654,1007.7453" style="stroke:#181818;stroke-width:0.4272;"/><line style="stroke:#181818;stroke-width:0.4272;" x1="809.0994" x2="817.6424" y1="1007.7453" y2="999.2023"/><line style="stroke:#181818;stroke-width:0.4272;" x1="639.8654" x2="809.0994" y1="1007.7453" y2="1007.7453"/><line style="stroke:#181818;stroke-width:0.4272;" x1="809.0994" x2="809.0994" y1="1007.7453" y2="1075.4223"/><text fill="#000000" font-family="sans-serif" font-size="11.9603" font-style="italic" lengthAdjust="spacing" textLength="131.6446" x="658.6601" y="1033.83">&#171;executionEnvironment&#187;</text><text fill="#000000" font-family="sans-serif" font-size="11.9603" lengthAdjust="spacing" textLength="91.7343" x="678.6152" y="1059.1254">Keycloak runtime</text></g><!--entity Collector--><g class="entity" data-entity="Collector" data-source-line="46" data-uid="ent0016" id="entity_Collector"><polygon fill="#F1F1F1" points="639.8654,1210.2155,648.4084,1201.6724,817.6424,1201.6724,817.6424,1269.3493,809.0994,1277.8924,639.8654,1277.8924,639.8654,1210.2155" style="stroke:#181818;stroke-width:0.4272;"/><line style="stroke:#181818;stroke-width:0.4272;" x1="809.0994" x2="817.6424" y1="1210.2155" y2="1201.6724"/><line style="stroke:#181818;stroke-width:0.4272;" x1="639.8654" x2="809.0994" y1="1210.2155" y2="1210.2155"/><line style="stroke:#181818;stroke-width:0.4272;" x1="809.0994" x2="809.0994" y1="1210.2155" y2="1277.8924"/><text fill="#000000" font-family="sans-serif" font-size="11.9603" font-style="italic" lengthAdjust="spacing" textLength="131.6446" x="658.6601" y="1236.3001">&#171;executionEnvironment&#187;</text><text fill="#000000" font-family="sans-serif" font-size="11.9603" lengthAdjust="spacing" textLength="81.7537" x="683.6055" y="1261.5955">OTLP Collector</text></g><!--entity Jaeger--><g class="entity" data-entity="Jaeger" data-source-line="47" data-uid="ent0017" id="entity_Jaeger"><polygon fill="#F1F1F1" points="967.4911,1210.2155,976.0341,1201.6724,1145.2681,1201.6724,1145.2681,1269.3493,1136.7251,1277.8924,967.4911,1277.8924,967.4911,1210.2155" style="stroke:#181818;stroke-width:0.4272;"/><line style="stroke:#181818;stroke-width:0.4272;" x1="1136.7251" x2="1145.2681" y1="1210.2155" y2="1201.6724"/><line style="stroke:#181818;stroke-width:0.4272;" x1="967.4911" x2="1136.7251" y1="1210.2155" y2="1210.2155"/><line style="stroke:#181818;stroke-width:0.4272;" x1="1136.7251" x2="1136.7251" y1="1210.2155" y2="1277.8924"/><text fill="#000000" font-family="sans-serif" font-size="11.9603" font-style="italic" lengthAdjust="spacing" textLength="131.6446" x="986.2858" y="1236.3001">&#171;executionEnvironment&#187;</text><text fill="#000000" font-family="sans-serif" font-size="11.9603" lengthAdjust="spacing" textLength="36.5699" x="1033.8231" y="1261.5955">Jaeger</text></g><!--entity Prometheus--><g class="entity" data-entity="Prometheus" data-source-line="50" data-uid="ent0018" id="entity_Prometheus"><polygon fill="#F1F1F1" points="967.4911,1324.6922,976.0341,1316.1492,1145.2681,1316.1492,1145.2681,1383.8261,1136.7251,1392.3691,967.4911,1392.3691,967.4911,1324.6922" style="stroke:#181818;stroke-width:0.4272;"/><line style="stroke:#181818;stroke-width:0.4272;" x1="1136.7251" x2="1145.2681" y1="1324.6922" y2="1316.1492"/><line style="stroke:#181818;stroke-width:0.4272;" x1="967.4911" x2="1136.7251" y1="1324.6922" y2="1324.6922"/><line style="stroke:#181818;stroke-width:0.4272;" x1="1136.7251" x2="1136.7251" y1="1324.6922" y2="1392.3691"/><text fill="#000000" font-family="sans-serif" font-size="11.9603" font-style="italic" lengthAdjust="spacing" textLength="131.6446" x="986.2858" y="1350.7769">&#171;executionEnvironment&#187;</text><text fill="#000000" font-family="sans-serif" font-size="11.9603" lengthAdjust="spacing" textLength="64.485" x="1019.8656" y="1376.0723">Prometheus</text></g><!--entity Grafana--><g class="entity" data-entity="Grafana" data-source-line="51" data-uid="ent0019" id="entity_Grafana"><polygon fill="#F1F1F1" points="639.8654,1324.6922,648.4084,1316.1492,817.6424,1316.1492,817.6424,1383.8261,809.0994,1392.3691,639.8654,1392.3691,639.8654,1324.6922" style="stroke:#181818;stroke-width:0.4272;"/><line style="stroke:#181818;stroke-width:0.4272;" x1="809.0994" x2="817.6424" y1="1324.6922" y2="1316.1492"/><line style="stroke:#181818;stroke-width:0.4272;" x1="639.8654" x2="809.0994" y1="1324.6922" y2="1324.6922"/><line style="stroke:#181818;stroke-width:0.4272;" x1="809.0994" x2="809.0994" y1="1324.6922" y2="1392.3691"/><text fill="#000000" font-family="sans-serif" font-size="11.9603" font-style="italic" lengthAdjust="spacing" textLength="131.6446" x="658.6601" y="1350.7769">&#171;executionEnvironment&#187;</text><text fill="#000000" font-family="sans-serif" font-size="11.9603" lengthAdjust="spacing" textLength="43.2158" x="702.8745" y="1376.0723">Grafana</text></g><!--entity Logs--><g class="entity" data-entity="Logs" data-source-line="53" data-uid="ent0020" id="entity_Logs"><polygon fill="#F1F1F1" points="639.8654,1439.169,648.4084,1430.626,817.6424,1430.626,817.6424,1498.3029,809.0994,1506.8459,639.8654,1506.8459,639.8654,1439.169" style="stroke:#181818;stroke-width:0.4272;"/><line style="stroke:#181818;stroke-width:0.4272;" x1="809.0994" x2="817.6424" y1="1439.169" y2="1430.626"/><line style="stroke:#181818;stroke-width:0.4272;" x1="639.8654" x2="809.0994" y1="1439.169" y2="1439.169"/><line style="stroke:#181818;stroke-width:0.4272;" x1="809.0994" x2="809.0994" y1="1439.169" y2="1506.8459"/><text fill="#000000" font-family="sans-serif" font-size="11.9603" font-style="italic" lengthAdjust="spacing" textLength="131.6446" x="658.6601" y="1465.2536">&#171;executionEnvironment&#187;</text><text fill="#000000" font-family="sans-serif" font-size="11.9603" lengthAdjust="spacing" textLength="106.3692" x="671.2978" y="1490.5491">stdout / log collector</text></g><!--entity Csv--><g class="entity" data-entity="Csv" data-source-line="57" data-uid="ent0022" id="entity_Csv"><rect fill="#F1F1F1" height="70.2398" rx="2.1358" ry="2.1358" style="stroke:#181818;stroke-width:0.4272;" width="180.823" x="638.1568" y="1650.6093"/><polygon fill="#F1F1F1" points="804.4566,1654.8808,804.4566,1666.8411,814.7082,1666.8411,814.7082,1660.0067,809.5824,1654.8808,804.4566,1654.8808" style="stroke:#181818;stroke-width:0.4272;"/><line style="stroke:#181818;stroke-width:0.4272;" x1="809.5824" x2="809.5824" y1="1654.8808" y2="1660.0067"/><line style="stroke:#181818;stroke-width:0.4272;" x1="814.7082" x2="809.5824" y1="1660.0067" y2="1660.0067"/><text fill="#000000" font-family="sans-serif" font-size="11.9603" font-style="italic" lengthAdjust="spacing" textLength="49.1959" x="699.6988" y="1679.2569">&#171;artifact&#187;</text><text fill="#000000" font-family="sans-serif" font-size="11.9603" lengthAdjust="spacing" textLength="144.9422" x="651.8256" y="1704.5523">Shopping trends source file</text></g><!--entity User--><g class="entity" data-entity="User" data-source-line="20" data-uid="ent0002" id="entity_User"><ellipse cx="45.2725" cy="484.9111" fill="#F1F1F1" rx="6.8344" ry="6.8344" style="stroke:#181818;stroke-width:0.4272;"/><path d="M45.2725,491.7456 L45.2725,514.8118 M34.1665,498.58 L56.3785,498.58 M45.2725,514.8118 L34.1665,527.6263 M45.2725,514.8118 L56.3785,527.6263" fill="none" style="stroke:#181818;stroke-width:0.4272;"/><text fill="#000000" font-family="sans-serif" font-size="11.9603" lengthAdjust="spacing" textLength="53.827" x="18.359" y="546.4494">CRM user</text></g><g class="entity" data-entity="GMN39" data-source-line="82" data-uid="ent0040" id="entity_GMN39"><path d="M607.829,584.8647 L607.829,631.5978 L849.9408,631.5978 L849.9408,593.4078 L841.3977,584.8647 L607.829,584.8647" fill="#FEFFDD" style="stroke:#181818;stroke-width:0.4272;"/><path d="M841.3977,584.8647 L841.3977,593.4078 L849.9408,593.4078 L841.3977,584.8647" fill="#FEFFDD" style="stroke:#181818;stroke-width:0.8543;"/><text fill="#000000" font-family="sans-serif" font-size="11.106" lengthAdjust="spacing" textLength="179.7722" x="618.0806" y="605.791">Dockerfile &#1087;&#1091;&#1073;&#1083;&#1080;&#1082;&#1091;&#1077;&#1090; Crm.dll &#1074; /app.</text><text fill="#000000" font-family="sans-serif" font-size="11.106" lengthAdjust="spacing" textLength="213.9198" x="618.0806" y="619.7602">&#1050;&#1086;&#1085;&#1090;&#1077;&#1081;&#1085;&#1077;&#1088; &#1086;&#1090;&#1082;&#1088;&#1099;&#1074;&#1072;&#1077;&#1090; &#1087;&#1086;&#1088;&#1090;&#1099; 8080 &#1080; 8081.</text></g><g class="entity" data-entity="GMN42" data-source-line="87" data-uid="ent0043" id="entity_GMN42"><path d="M971.7626,1013.7255 L971.7626,1033.8016 L817.5948,1037.2188 L971.7626,1040.6361 L971.7626,1060.4586 A0,0 0 0 0 971.7626,1060.4586 L1141.3224,1060.4586 A0,0 0 0 0 1141.3224,1060.4586 L1141.3224,1022.2685 L1132.7793,1013.7255 L971.7626,1013.7255 A0,0 0 0 0 971.7626,1013.7255" fill="#FEFFDD" style="stroke:#181818;stroke-width:0.4272;"/><path d="M1132.7793,1013.7255 L1132.7793,1022.2685 L1141.3224,1022.2685 L1132.7793,1013.7255" fill="#FEFFDD" style="stroke:#181818;stroke-width:0.4272;"/><text fill="#000000" font-family="sans-serif" font-size="11.106" lengthAdjust="spacing" textLength="59.8518" x="982.0142" y="1034.6518">Realm: crm.</text><text fill="#000000" font-family="sans-serif" font-size="11.106" lengthAdjust="spacing" textLength="141.3678" x="982.0142" y="1048.621">Clients: crm-api &#1080; admin-api.</text></g><g class="entity" data-entity="GMN45" data-source-line="92" data-uid="ent0046" id="entity_GMN45"><path d="M536.9217,48.3616 L536.9217,109.064 L920.244,109.064 L920.244,56.9047 L911.701,48.3616 L536.9217,48.3616" fill="#FEFFDD" style="stroke:#181818;stroke-width:0.4272;"/><path d="M911.701,48.3616 L911.701,56.9047 L920.244,56.9047 L911.701,48.3616" fill="#FEFFDD" style="stroke:#181818;stroke-width:0.8543;"/><text fill="#000000" font-family="sans-serif" font-size="11.106" lengthAdjust="spacing" textLength="238.3605" x="547.1733" y="69.2879">Prometheus &#1089;&#1086;&#1073;&#1080;&#1088;&#1072;&#1077;&#1090; &#1084;&#1077;&#1090;&#1088;&#1080;&#1082;&#1080; &#1089; CRM /metrics.</text><text fill="#000000" font-family="sans-serif" font-size="11.106" lengthAdjust="spacing" textLength="355.1303" x="547.1733" y="83.2571">OTLP Collector &#1087;&#1088;&#1080;&#1085;&#1080;&#1084;&#1072;&#1077;&#1090; &#1090;&#1088;&#1072;&#1089;&#1089;&#1080;&#1088;&#1086;&#1074;&#1082;&#1080; CRM &#1080; &#1087;&#1077;&#1088;&#1077;&#1076;&#1072;&#1077;&#1090; &#1080;&#1093; &#1074; Jaeger.</text><text fill="#000000" font-family="sans-serif" font-size="11.106" lengthAdjust="spacing" textLength="311.9429" x="547.1733" y="97.2263">Grafana &#1080;&#1089;&#1087;&#1086;&#1083;&#1100;&#1079;&#1091;&#1077;&#1090;&#1089;&#1103; &#1076;&#1083;&#1103; &#1087;&#1088;&#1086;&#1089;&#1084;&#1086;&#1090;&#1088;&#1072; &#1084;&#1077;&#1090;&#1088;&#1080;&#1082; &#1080; &#1090;&#1088;&#1072;&#1089;&#1089;&#1080;&#1088;&#1086;&#1074;&#1086;&#1082;.</text></g><!--link User to Browser--><g class="link" data-entity-1="User" data-entity-2="Browser" data-source-line="60" data-uid="lnk23" id="link_User_Browser"><path d="M77.3316,516.0932 C91.0774,516.0932 102.6361,516.0932 119.1584,516.0932" fill="none" id="User-to-Browser" style="stroke:#181818;stroke-width:0.8543;"/><polygon fill="#181818" points="124.2842,516.0932,116.5954,512.676,120.0127,516.0932,116.5954,519.5104,124.2842,516.0932" style="stroke:#181818;stroke-width:0.8543;"/><text fill="#000000" font-family="sans-serif" font-size="11.106" lengthAdjust="spacing" textLength="84.4335" x="11.106" y="533.6023">&#1088;&#1072;&#1073;&#1086;&#1090;&#1072;&#1077;&#1090; &#1089; CRM</text></g><!--link Browser to CrmRuntime--><g class="link" data-entity-1="Browser" data-entity-2="CrmRuntime" data-source-line="61" data-uid="lnk24" id="link_Browser_CrmRuntime"><path d="M272.1301,516.3751 C288.4687,516.3751 306.086,516.3751 323.4044,516.3751 C327.7339,516.3751 332.0448,516.3751 336.3124,516.3751 C338.4462,516.3751 340.5691,516.3751 342.6782,516.3751 C343.7327,516.3751 344.7837,516.3751 345.8309,516.3751 C346.0927,516.3751 341.2284,516.3751 341.4897,516.3751" fill="none" id="Browser-to-CrmRuntime" style="stroke:#181818;stroke-width:0.8543;"/><polygon fill="#181818" points="346.6155,516.3751,338.9268,512.9579,342.344,516.3751,338.9268,519.7924,346.6155,516.3751" style="stroke:#181818;stroke-width:0.8543;"/><text fill="#000000" font-family="sans-serif" font-size="11.106" lengthAdjust="spacing" textLength="69.1085" x="356.3474" y="533.8842">HTTPS REST</text><text fill="#000000" font-family="sans-serif" font-size="11.106" lengthAdjust="spacing" textLength="52.4984" x="364.6525" y="547.8534">8080/8081</text></g><!--link CrmRuntime to PgRuntime--><g class="link" data-entity-1="CrmRuntime" data-entity-2="PgRuntime" data-source-line="63" data-uid="lnk25" id="link_CrmRuntime_PgRuntime"><path d="M513.8555,523.2526 C513.8555,524.7299 513.8555,526.4281 513.8555,528.33 C513.8555,535.9376 513.8555,546.8056 513.8555,559.8472 C513.8555,585.9305 513.8555,620.7081 513.8555,655.4858 C513.8555,725.0411 513.8555,794.5964 513.8555,794.5964 C513.8555,794.5964 565.0817,794.5964 617.5093,794.5964 C643.7231,794.5964 670.2372,794.5964 690.7986,794.5964 C701.0793,794.5964 709.8718,794.5964 716.3944,794.5964 C718.0251,794.5964 719.5139,794.5964 720.8486,794.5964 C721.0155,794.5964 716.0541,794.5964 716.2161,794.5964" fill="none" id="CrmRuntime-to-PgRuntime" style="stroke:#181818;stroke-width:0.8543;"/><polygon fill="#181818" points="721.3419,794.5964,713.6532,791.1792,717.0704,794.5964,713.6532,798.0136,721.3419,794.5964" style="stroke:#181818;stroke-width:0.8543;"/><text fill="#000000" font-family="sans-serif" font-size="11.106" lengthAdjust="spacing" textLength="50.0039" x="440.8855" y="737.875">TCP 5432</text><text fill="#000000" font-family="sans-serif" font-size="11.106" lengthAdjust="spacing" textLength="85.1764" x="423.2992" y="751.8442">EF Core / Npgsql</text></g><!--link PgRuntime to CrmDb--><g class="link" data-entity-1="PgRuntime" data-entity-2="CrmDb" data-source-line="64" data-uid="lnk26" id="link_PgRuntime_CrmDb"><path d="M729.1402,794.7075 C729.1402,797.0141 729.1402,833.8944 729.1402,833.8944 C729.1402,833.8944 933.8315,833.8944 1017.4337,833.8944" fill="none" id="PgRuntime-to-CrmDb" style="stroke:#181818;stroke-width:0.8543;"/><polygon fill="#181818" points="1022.5595,833.8944,1014.8708,830.4772,1018.288,833.8944,1014.8708,837.3116,1022.5595,833.8944" style="stroke:#181818;stroke-width:0.8543;"/><text fill="#000000" font-family="sans-serif" font-size="11.106" lengthAdjust="spacing" textLength="77.4977" x="773.3931" y="851.4035">&#1093;&#1088;&#1072;&#1085;&#1080;&#1090; &#1076;&#1072;&#1085;&#1085;&#1099;&#1077;</text></g><!--link CrmRuntime to KeycloakRuntime--><g class="link" data-entity-1="CrmRuntime" data-entity-2="KeycloakRuntime" data-source-line="66" data-uid="lnk27" id="link_CrmRuntime_KeycloakRuntime"><path d="M429.2794,522.9694 C429.2794,523.0516 429.2794,523.134 429.2794,523.2169 C429.2794,523.5483 429.2794,523.8856 429.2794,524.2275 C429.2794,525.5951 429.2794,527.0358 429.2794,528.4657 C429.2794,534.1853 429.2794,539.7318 429.2794,539.7318 C429.2794,539.7318 460.0343,539.7318 460.0343,539.7318 C460.0343,539.7318 460.0343,1049.8882 460.0343,1049.8882 C460.0343,1049.8882 556.2888,1049.8882 634.5003,1049.8882" fill="none" id="CrmRuntime-to-KeycloakRuntime" style="stroke:#181818;stroke-width:0.8543;"/><polygon fill="#181818" points="639.6262,1049.8882,631.9374,1046.471,635.3546,1049.8882,631.9374,1053.3054,639.6262,1049.8882" style="stroke:#181818;stroke-width:0.8543;"/><text fill="#000000" font-family="sans-serif" font-size="11.106" lengthAdjust="spacing" textLength="56.7879" x="367.0215" y="874.9481">HTTP 8080</text><text fill="#000000" font-family="sans-serif" font-size="11.106" lengthAdjust="spacing" textLength="118.5105" x="336.1602" y="888.9173">JWT/OIDC &#1080; Admin API</text></g><!--link CrmRuntime to Collector--><g class="link" data-entity-1="CrmRuntime" data-entity-2="Collector" data-source-line="67" data-uid="lnk28" id="link_CrmRuntime_Collector"><path d="M440.3853,523.2466 C440.3853,525.5425 440.3853,527.9823 440.3853,530.5601 C440.3853,551.1829 440.3853,580.6441 440.3853,615.9974 C440.3853,686.7042 440.3853,780.9799 440.3853,875.2556 C440.3853,1063.8069 440.3853,1252.3583 440.3853,1252.3583 C440.3853,1252.3583 550.0096,1252.3583 634.731,1252.3583" fill="none" id="CrmRuntime-to-Collector" style="stroke:#181818;stroke-width:0.8543;"/><polygon fill="#181818" points="639.8568,1252.3583,632.1681,1248.9411,635.5853,1252.3583,632.1681,1255.7755,639.8568,1252.3583" style="stroke:#181818;stroke-width:0.8543;"/><text fill="#000000" font-family="sans-serif" font-size="11.106" lengthAdjust="spacing" textLength="62.3354" x="372.8953" y="978.0028">OTLP traces</text><text fill="#000000" font-family="sans-serif" font-size="11.106" lengthAdjust="spacing" textLength="24.7064" x="391.7098" y="991.972">4317</text></g><!--link Collector to Jaeger--><g class="link" data-entity-1="Collector" data-entity-2="Jaeger" data-source-line="68" data-uid="lnk29" id="link_Collector_Jaeger"><path d="M817.5948,1227.0196 C864.1117,1227.0196 915.7886,1227.0196 962.314,1227.0196" fill="none" id="Collector-to-Jaeger" style="stroke:#181818;stroke-width:0.8543;"/><polygon fill="#181818" points="967.4398,1227.0196,959.7511,1223.6024,963.1683,1227.0196,959.7511,1230.4368,967.4398,1227.0196" style="stroke:#181818;stroke-width:0.8543;"/><text fill="#000000" font-family="sans-serif" font-size="11.106" lengthAdjust="spacing" textLength="115.6147" x="771.2061" y="1244.5287">&#1087;&#1077;&#1088;&#1077;&#1076;&#1072;&#1077;&#1090; &#1090;&#1088;&#1072;&#1089;&#1089;&#1080;&#1088;&#1086;&#1074;&#1082;&#1080;</text></g><!--link Prometheus to CrmRuntime--><g class="link" data-entity-1="Prometheus" data-entity-2="CrmRuntime" data-source-line="69" data-uid="lnk30" id="link_Prometheus_CrmRuntime"><path d="M967.3458,1373.174 C953.9076,1373.174 944.4248,1373.174 944.4248,1373.174 C944.4248,1373.174 944.4248,528.3354 944.4248,528.3354 C944.4248,528.3354 429.2794,528.3354 429.2794,528.3354 C429.2794,528.3354 429.2794,527.6632 429.2794,526.6337 C429.2794,526.119 429.2794,525.515 429.2794,524.8611 C429.2794,524.5341 429.2794,524.1946 429.2794,523.8476 C429.2794,523.6741 429.2794,523.4987 429.2794,523.3221 C429.2794,523.2337 429.2794,523.1451 429.2794,523.0562 C429.2794,523.0339 429.2794,528.1375 429.2794,528.1153" fill="none" id="Prometheus-to-CrmRuntime" style="stroke:#181818;stroke-width:0.8543;"/><polygon fill="#181818" points="429.2794,522.9895,425.8621,530.6782,429.2794,527.261,432.6966,530.6782,429.2794,522.9895" style="stroke:#181818;stroke-width:0.8543;"/><text fill="#000000" font-family="sans-serif" font-size="11.106" lengthAdjust="spacing" textLength="89.8671" x="950.405" y="716.0988">&#1089;&#1086;&#1073;&#1080;&#1088;&#1072;&#1077;&#1090; /metrics</text></g><!--link Grafana to Prometheus--><g class="link" data-entity-1="Grafana" data-entity-2="Prometheus" data-source-line="70" data-uid="lnk31" id="link_Grafana_Prometheus"><path d="M817.5948,1354.1657 C864.1117,1354.1657 915.7886,1354.1657 962.314,1354.1657" fill="none" id="Grafana-to-Prometheus" style="stroke:#181818;stroke-width:0.8543;"/><polygon fill="#181818" points="967.4398,1354.1657,959.7511,1350.7485,963.1683,1354.1657,959.7511,1357.5829,967.4398,1354.1657" style="stroke:#181818;stroke-width:0.8543;"/><text fill="#000000" font-family="sans-serif" font-size="11.106" lengthAdjust="spacing" textLength="79.9434" x="807.0869" y="1371.6748">&#1095;&#1080;&#1090;&#1072;&#1077;&#1090; &#1084;&#1077;&#1090;&#1088;&#1080;&#1082;&#1080;</text></g><!--link Grafana to Jaeger--><g class="link" data-entity-1="Grafana" data-entity-2="Jaeger" data-source-line="71" data-uid="lnk32" id="link_Grafana_Jaeger"><path d="M817.7486,1335.1575 C828.1113,1335.1575 835.0739,1335.1575 835.0739,1335.1575 C835.0739,1335.1575 835.0739,1252.3583 835.0739,1252.3583 C835.0739,1252.3583 900.693,1252.3583 962.1773,1252.3583" fill="none" id="Grafana-to-Jaeger" style="stroke:#181818;stroke-width:0.8543;"/><polygon fill="#181818" points="967.3031,1252.3583,959.6144,1248.9411,963.0316,1252.3583,959.6144,1255.7755,967.3031,1252.3583" style="stroke:#181818;stroke-width:0.8543;"/><text fill="#000000" font-family="sans-serif" font-size="11.106" lengthAdjust="spacing" textLength="101.6672" x="857.1064" y="1269.8674">&#1095;&#1080;&#1090;&#1072;&#1077;&#1090; &#1090;&#1088;&#1072;&#1089;&#1089;&#1080;&#1088;&#1086;&#1074;&#1082;&#1080;</text></g><!--link CrmRuntime to Logs--><g class="link" data-entity-1="CrmRuntime" data-entity-2="Logs" data-source-line="72" data-uid="lnk33" id="link_CrmRuntime_Logs"><path d="M572.8025,522.9331 C572.8025,523.2919 572.8025,523.6638 572.8025,524.0486 C572.8025,524.8182 572.8025,525.6397 572.8025,526.512 C572.8025,533.4908 572.8025,543.7263 572.8025,556.7533 C572.8025,582.8072 572.8025,620.0272 572.8025,664.6912 C572.8025,754.0191 572.8025,873.123 572.8025,992.2269 C572.8025,1230.4347 572.8025,1468.6425 572.8025,1468.6425 C572.8025,1468.6425 599.696,1468.6425 634.7054,1468.6425" fill="none" id="CrmRuntime-to-Logs" style="stroke:#181818;stroke-width:0.8543;"/><polygon fill="#181818" points="639.8312,1468.6425,632.1425,1465.2253,635.5597,1468.6425,632.1425,1472.0597,639.8312,1468.6425" style="stroke:#181818;stroke-width:0.8543;"/><text fill="#000000" font-family="sans-serif" font-size="11.106" lengthAdjust="spacing" textLength="92.3399" x="474.5575" y="971.476">&#1087;&#1080;&#1096;&#1077;&#1090; stdout-&#1083;&#1086;&#1075;&#1080;</text></g><!--link CrmDll to Models--><g class="link" data-entity-1="CrmDll" data-entity-2="Models" data-source-line="74" data-uid="lnk34" id="link_CrmDll_Models"><path d="M472.4559,334.1264 C521.2708,334.1264 595.9285,334.1264 653.5171,334.1264" fill="none" id="CrmDll-to-Models" style="stroke:#181818;stroke-width:0.8543;"/><polygon fill="#181818" points="658.643,334.1264,650.9542,330.7092,654.3715,334.1264,650.9542,337.5436,658.643,334.1264" style="stroke:#181818;stroke-width:0.8543;"/><text fill="#000000" font-family="sans-serif" font-size="11.106" lengthAdjust="spacing" textLength="131.3572" x="428.8607" y="351.6355">&#1095;&#1080;&#1090;&#1072;&#1077;&#1090;/&#1087;&#1080;&#1096;&#1077;&#1090; ML-&#1084;&#1086;&#1076;&#1077;&#1083;&#1080;</text></g><!--link CrmRuntime to Csv--><g class="link" data-entity-1="CrmRuntime" data-entity-2="Csv" data-source-line="75" data-uid="lnk35" id="link_CrmRuntime_Csv"><path d="M398.5244,523.2816 C398.5244,524.9149 398.5244,526.807 398.5244,528.949 C398.5244,537.517 398.5244,550.0835 398.5244,566.0772 C398.5244,598.0646 398.5244,643.7609 398.5244,698.5964 C398.5244,808.2674 398.5244,954.4955 398.5244,1100.7235 C398.5244,1393.1797 398.5244,1685.6358 398.5244,1685.6358 C398.5244,1685.6358 535.1789,1685.6358 632.9284,1685.6358" fill="none" id="CrmRuntime-to-Csv" style="stroke:#181818;stroke-width:0.8543;"/><polygon fill="#181818" points="638.0542,1685.6358,630.3655,1682.2186,633.7827,1685.6358,630.3655,1689.053,638.0542,1685.6358" style="stroke:#181818;stroke-width:0.8543;"/><text fill="#000000" font-family="sans-serif" font-size="11.106" lengthAdjust="spacing" textLength="112.155" x="280.6304" y="1223.0002">&#1095;&#1080;&#1090;&#1072;&#1077;&#1090; &#1092;&#1072;&#1081;&#1083; &#1080;&#1084;&#1087;&#1086;&#1088;&#1090;&#1072;</text></g><!--link Settings to PgRuntime--><g class="link" data-entity-1="Settings" data-entity-2="PgRuntime" data-source-line="77" data-uid="lnk36" id="link_Settings_PgRuntime"><path d="M480.5376,477.6666 C480.5376,550.7694 480.5376,712.7968 480.5376,712.7968 C480.5376,712.7968 729.1402,712.7968 729.1402,712.7968 C729.1402,712.7968 729.1402,717.7507 729.1402,725.2202 C729.1402,726.1539 729.1402,727.1269 729.1402,728.1345 C729.1402,728.6383 729.1402,729.1507 729.1402,729.6711 C729.1402,729.9313 729.1402,725.0678 729.1402,725.3319" fill="none" id="Settings-to-PgRuntime" style="stroke:#181818;stroke-width:0.8543;stroke-dasharray:5.9801,5.9801;"/><polygon fill="#181818" points="729.1402,730.4577,732.5574,722.769,729.1402,726.1862,725.7229,722.769,729.1402,730.4577" style="stroke:#181818;stroke-width:0.8543;"/><text fill="#000000" font-family="sans-serif" font-size="11.106" lengthAdjust="spacing" textLength="105.7669" x="534.1281" y="730.3059">&#1089;&#1090;&#1088;&#1086;&#1082;&#1072; &#1087;&#1086;&#1076;&#1082;&#1083;&#1102;&#1095;&#1077;&#1085;&#1080;&#1103;</text></g><!--link Settings to KeycloakRuntime--><g class="link" data-entity-1="Settings" data-entity-2="KeycloakRuntime" data-source-line="78" data-uid="lnk37" id="link_Settings_KeycloakRuntime"><path d="M470.286,477.7179 C470.286,603.5313 470.286,1024.5495 470.286,1024.5495 C470.286,1024.5495 559.9025,1024.5495 634.6541,1024.5495" fill="none" id="Settings-to-KeycloakRuntime" style="stroke:#181818;stroke-width:0.8543;stroke-dasharray:5.9801,5.9801;"/><polygon fill="#181818" points="639.7799,1024.5495,632.0912,1021.1323,635.5084,1024.5495,632.0912,1027.9667,639.7799,1024.5495" style="stroke:#181818;stroke-width:0.8543;"/><text fill="#000000" font-family="sans-serif" font-size="11.106" lengthAdjust="spacing" textLength="62.3625" x="476.2661" y="853.3855">URL &#1080; realm</text></g><!--link Settings to Collector--><g class="link" data-entity-1="Settings" data-entity-2="Collector" data-source-line="79" data-uid="lnk38" id="link_Settings_Collector"><path d="M449.7827,477.8546 C449.7827,630.476 449.7827,1227.0196 449.7827,1227.0196 C449.7827,1227.0196 552.9399,1227.0196 634.5687,1227.0196" fill="none" id="Settings-to-Collector" style="stroke:#181818;stroke-width:0.8543;stroke-dasharray:5.9801,5.9801;"/><polygon fill="#181818" points="639.6945,1227.0196,632.0058,1223.6024,635.423,1227.0196,632.0058,1230.4368,639.6945,1227.0196" style="stroke:#181818;stroke-width:0.8543;"/><text fill="#000000" font-family="sans-serif" font-size="11.106" lengthAdjust="spacing" textLength="74.7049" x="369.4781" y="939.2687">OTLP endpoint</text></g><!--link AppHost to GMN39--><g class="link" data-entity-1="AppHost" data-entity-2="GMN39" data-source-line="82" data-uid="lnk41" id="link_AppHost_GMN39"><path d="M429.2794,564.0379 C429.2794,564.598 429.2794,565.1843 429.2794,565.7937 C429.2794,570.6689 429.2794,577.0233 429.2794,583.3291 C429.2794,595.9408 429.2794,608.3581 429.2794,608.3581 C429.2794,608.3581 524.6881,608.3581 607.7862,608.3581" fill="none" id="AppHost-GMN39" style="stroke:#181818;stroke-width:0.8543;stroke-dasharray:5.9801,5.9801;"/></g><!--link ObsHost to GMN45--><g class="link" data-entity-1="ObsHost" data-entity-2="GMN45" data-source-line="92" data-uid="lnk47" id="link_ObsHost_GMN45"><path d="M885.4778,1110.826 C885.4778,1108.4107 885.4778,1105.9903 885.4778,1103.5648 C885.4778,1098.7137 885.4778,1093.8423 885.4778,1088.9517 C885.4778,1069.3891 885.4778,1049.5186 885.4778,1029.4085 C885.4778,989.1882 885.4778,948.0096 885.4778,906.4195 C885.4778,573.699 885.4778,214.6477 885.4778,109.3248" fill="none" id="ObsHost-GMN45" style="stroke:#181818;stroke-width:0.8543;stroke-dasharray:5.9801,5.9801;"/></g><!--SRC=[ZLPHJnj747w_Np7YiP9jIA2nB8H4CMr8JU9YexuWLUkxzVdAtUrrT-q4HKX04wKILVFUNv6cjUhYGFx2tJ_gpDxPTsS3uSLUxyuty-tCDxFMdlOvx1piGmKEzrlGv94lJW8UQcXwp9Kii2nrx8KHmoMe0NF4IozqeSzynGidlXToVH9n458FHE4W50vNF8BrZSAcPE4nRMuKDoFcEEJwwzAUo_UPTBqGrbOB-qnghyzi3QyjW7O6hECwCwvRfmiSIfReQswAwrFBvtqDMe3qt846nvFSrfu8BMKpJ4_0Ni6ZzVhgLsjFrkkMXN65X1LAsb1nkG9CmI4kBCi4MjdnFSgVmqUUpSrfkjCq6x2vcPviRHbEywkiV2F5ItI3AOJjzXxO1cJmivFDpPdrrXQopk9jHv7lsOm8mq2e58ARJt6z62r5D8LzZEvi4Mg6XPDGW-rEk_fyjmixGdA8fB2vKYbt6HmCG-q5n9o_ulQG0ks68q-Aa8IIUIxU135Ln_Td-ARlbwcNhLaKAQur5aPLVrOYDB1EjdCVCF0h0Tx7Lrd5X3mnsFrqSm5vccUiZPbn9U_yqCeJrdRlpbV1NgQvo20Fp8p3DEinXPvi6VpazEQ9wPLvxJc8ylG95M3aELYOERqzvvvwVizFR5-munAxsUQNEERXN_HGP2FMytpYC0-DsxU5riBbUe0SqpjcBhgjDch8zqqvqdlEVjtD8CS_OzpDMYfTtWSwlOj5Mug0TeUfXFEV3w7mdMHz5ZA3pDPV8f42bNR4K6Cl-SB5tYhce2LSzO02x0KHpayZ5tIIjdHQVNDmMnNoRkWCH1JHTDEIXuu29OOInqtVyxCXf4PB0uJ65bGgM_C9qu3aBFuG_nNV91VuFKuk83cdzy6QMP1rOIOqu6cts-x0mMwdUnJML-khDVnOiwo23K7oNcb0TwSD6-kF7ns5kz-c0wS6poDN_U9RkLaMfzaZJcyDg-juWdpYVypoEhcCnqjX5aMVqWFYTHG- -x5RUx7Nt85u0jjEWCCVv-oYXrok3J1grfBXC3mArn-lFR7oKxBD9Dg0-3EcwYmU6sucQHV4E3bFpf7pMNmJVuoluebLKE9I7j7q1XC_CLSb7pKqbPwjh9aAJHvp3mXvHnd9pEDFz8NeYGbL1CrvbW1tS5p8Xv6kkU4a-StWKfrNuYb2_aQ0bOruiiv6RpbIhG3URrMGw0qcQemEbgAHI1Tfli75V_4KguR8pwZCCpgphFaJKQsMzOLNkZ0Nkee_476ATXLFap_GxzYew7qPlAoQmuCMgKHovWTbsoLzOBD5mWirDR7csLy8qP-zmDYZwNDBZOXiab-no5Cg4gxeVjbZ2V57gE5JM4L0_2ToliPRZl7YroGjC0rvXLU_n39b1SzoaLmQVHDVQhsgXOo0k2moMhWc1ZgW-pK0NoKAc_vDKUPtXKKUUMJK9_HZoMrFQ2q2yfiz4FG7ArVdafpB-ip6obpa5B_yU52koFZQrFq-oHf7-BNKXMZqblAQwfz2pBe2JywDCgR9x_6_QINGxNkQBbFwejWtQFE94az1I_mfsYrSK765DFqF]--></g></svg>